<svg width="20" height="19" viewBox="0 0 20 19" fill="none" xmlns="http://www.w3.org/2000/svg">
<path d="M14.5 0.5C16.4188 0.5 17.6963 1.33466 18.4746 2.4668C19.2352 3.57311 19.5 4.93095 19.5 6C19.5 7.39277 18.8773 8.80423 18.0098 10.1055C17.1373 11.4141 15.9824 12.6619 14.8428 13.7383C13.7011 14.8165 12.561 15.7353 11.708 16.3828C11.2817 16.7065 10.9261 16.9638 10.6758 17.1406C10.5513 17.2285 10.4523 17.2968 10.3838 17.3438H10.3828C10.3287 17.3808 10.3287 17.3812 10.3047 17.3975L10.2676 17.418L10.2471 17.4355L10 17.6006L9.75195 17.4355L9.73242 17.418L9.69434 17.3975C9.67032 17.3812 9.67127 17.3808 9.61719 17.3438H9.61621C9.54766 17.2968 9.44872 17.2285 9.32422 17.1406C9.07394 16.9638 8.71831 16.7065 8.29199 16.3828C7.43903 15.7353 6.29899 14.8165 5.15723 13.7383C4.01755 12.6619 2.8627 11.4142 1.99023 10.1055C1.1227 8.80422 0.5 7.39276 0.5 6C0.5 4.93096 0.764855 3.57312 1.52539 2.4668C2.30377 1.33465 3.58121 0.5 5.5 0.5C7.47948 0.5 8.7928 1.5304 9.59668 2.625L10 3.17383L10.4033 2.625C11.2072 1.5304 12.5206 0.5 14.5 0.5Z" fill="#0078A9" stroke="#0078A9"/>
</svg>
